<?xml version="1.0" standalone="no"?>
<!DOCTYPE svg PUBLIC "-//W3C//DTD SVG 1.1//EN"
  "http://www.w3.org/Graphics/SVG/1.1/DTD/svg11.dtd">
<svg width="1771.65px" height="1181.1px" version="1.1"
    xmlns="http://www.w3.org/2000/svg"
    xmlns:xlink="http://www.w3.org/1999/xlink">
<desc>Veusz output document</desc>
<defs>
<clipPath id="c0">
<path d="m0,0l1771.65,0l0,1181.1l-1771.65,0l0,-1181.1"/>
</clipPath>
<clipPath id="c1">
<path d="m200.78,23.62l1547.24,0l0,454.72l-1547.24,0l0,-454.72"/>
</clipPath>
<clipPath id="c2">
<path d="m963.36,831.6l118.11,0l0,60l-118.11,0l0,-60"/>
</clipPath>
<clipPath id="c3">
<path d="m963.36,891.6l118.11,0l0,60l-118.11,0l0,-60"/>
</clipPath>
<clipPath id="c4">
<path d="m200.78,525.59l1547.24,0l0,454.72l-1547.24,0l0,-454.72"/>
</clipPath>
</defs>
<g stroke-linejoin="bevel" stroke-linecap="square" stroke="#000000" fill-rule="evenodd">
<g clip-path="url(#c0)">
<g fill="#ffffff" stroke-width="2.08">
<path d="m200.78,23.62l1547.24,0l0,454.72l-1547.24,0l0,-454.72"/>
</g>
<g fill="#000000" stroke-dasharray="8.33,4.16" stroke-linecap="butt" stroke-width="2.08">
<g transform="matrix(0 1 -1 0 1593.3 24.98)">
<path d="M0,0l454.88,0"/>
</g>
<g transform="matrix(0 1 -1 0 1488.09 24.98)">
<path d="M0,0l454.88,0"/>
</g>
</g>
</g>
<g clip-path="url(#c1)">
<g fill="none" stroke-dasharray="0.83,16.66" stroke-width="8.33">
<polyline fill="none" points="192.45,424.28 200.78,413.38 214.03,413.38 226.41,413.38 239.66,413.38 252.47,417.71 265.71,422.04 278.53,413.38 291.77,396.06 305.01,387.4 317.83,374.4 331.07,370.07 343.89,357.08 357.13,313.77 370.37,274.8 382.33,248.81 395.58,300.78 408.39,123.22 421.63,266.14 434.45,270.47 447.69,266.14 460.93,292.12 473.75,270.47 486.99,201.18 499.81,240.15 513.05,209.84 526.29,244.48 538.25,248.81 551.5,235.82 564.31,227.16 577.55,287.79 590.37,283.46 603.61,279.13 616.86,248.81 629.67,222.83 642.91,205.51 655.73,214.17 668.97,175.19 682.21,209.84 694.17,201.18 707.42,231.49 720.23,240.15 733.48,248.81 746.29,270.47 759.53,261.81 772.78,235.82 785.59,218.5 798.83,218.5 811.65,231.49 824.89,240.15 838.13,240.15 850.52,244.48 863.77,240.15 876.58,257.48 889.82,266.14 902.64,296.45 915.88,305.11 929.12,270.47 941.94,261.81 955.18,227.16 968,227.16 981.24,231.49 994.48,231.49 1006.44,201.18 1019.69,214.17 1032.5,214.17 1045.74,257.48 1058.56,274.8 1071.8,270.47 1085.04,248.81 1097.86,235.82 1111.1,201.18 1123.92,209.84 1137.16,227.16 1150.4,214.17 1162.36,209.84 1175.61,222.83 1188.42,235.82 1201.66,253.14 1214.48,240.15 1227.72,205.51 1240.96,222.83 1253.78,222.83 1267.02,192.51 1279.84,192.51 1293.08,196.85 1306.32,196.85 1318.28,209.84 1331.53,214.17 1344.34,218.5 1357.58,244.48 1370.4,240.15 1383.64,248.81 1396.89,227.16 1409.7,214.17 1422.94,188.18 1435.76,170.86 1449,170.86 1462.24,183.85 1474.63,162.2 1487.87,45.27 1500.69,140.55 1513.93,183.85 1526.75,196.85 1539.99,209.84 1553.23,196.85 1566.05,196.85 1579.29,188.18 1592.11,131.88 1605.35,140.55 1618.59,157.87 1630.55,179.52 1643.79,166.53 1656.61,192.51 1669.85,214.17 1682.67,218.5 1695.91,188.18 1709.15,214.17 1721.97,266.14 1735.21,244.48 1748.03,214.17"/>
</g>
<g fill="none" stroke="#e41a1c" stroke-width="8.33">
<polyline fill="none" points="192.45,442.09 200.78,439.37 214.03,439.37 226.41,422.04 239.66,439.37 252.47,435.03 265.71,452.36 278.53,430.7 291.77,430.7 305.01,422.04 317.83,383.07 331.07,409.05 343.89,357.08 357.13,335.43 370.37,305.11 382.33,253.14 395.58,348.42 408.39,231.49 421.63,309.44 434.45,270.47 447.69,257.48 460.93,326.77 473.75,335.43 486.99,188.18 499.81,257.48 513.05,231.49 526.29,266.14 538.25,309.44 551.5,322.44 564.31,318.11 577.55,331.1 590.37,322.44 603.61,318.11 616.86,300.78 629.67,300.78 642.91,274.8 655.73,261.81 668.97,244.48 682.21,270.47 694.17,287.79 707.42,292.12 720.23,300.78 733.48,313.77 746.29,300.78 759.53,283.46 772.78,274.8 785.59,266.14 798.83,266.14 811.65,248.81 824.89,261.81 838.13,257.48 850.52,283.46 863.77,266.14 876.58,287.79 889.82,292.12 902.64,309.44 915.88,287.79 929.12,283.46 941.94,292.12 955.18,222.83 968,248.81 981.24,218.5 994.48,231.49 1006.44,218.5 1019.69,270.47 1032.5,231.49 1045.74,253.14 1058.56,266.14 1071.8,253.14 1085.04,266.14 1097.86,209.84 1111.1,192.51 1123.92,201.18 1137.16,175.19 1150.4,205.51 1162.36,196.85 1175.61,218.5 1188.42,231.49 1201.66,240.15 1214.48,235.82 1227.72,240.15 1240.96,218.5 1253.78,188.18 1267.02,144.88 1279.84,144.88 1293.08,149.21 1306.32,144.88 1318.28,209.84 1331.53,188.18 1344.34,214.17 1357.58,240.15 1370.4,235.82 1383.64,231.49 1396.89,218.5 1409.7,183.85 1422.94,127.55 1435.76,118.89 1449,149.21 1462.24,144.88 1474.63,170.86 1487.87,62.59 1500.69,162.2 1513.93,188.18 1526.75,170.86 1539.99,244.48 1553.23,192.51 1566.05,166.53 1579.29,110.23 1592.11,45.27 1605.35,79.92 1618.59,105.9 1630.55,118.89 1643.79,149.21 1656.61,175.19 1669.85,248.81 1682.67,235.82 1695.91,209.84 1709.15,214.17 1721.97,253.14 1735.21,222.83 1748.03,175.19"/>
</g>
</g>
<g clip-path="url(#c0)">
<g fill="none" stroke-linecap="butt" stroke-width="2.08">
<path d="M200.78,478.34l0,-454.72"/>
<path d="M200.78,478.34l12.5,0M200.78,456.69l12.5,0M200.78,435.03l12.5,0M200.78,413.38l12.5,0M200.78,391.73l12.5,0M200.78,370.07l12.5,0M200.78,348.42l12.5,0M200.78,326.77l12.5,0M200.78,305.11l12.5,0M200.78,283.46l12.5,0M200.78,261.81l12.5,0M200.78,240.15l12.5,0M200.78,218.5l12.5,0M200.78,196.85l12.5,0M200.78,175.19l12.5,0M200.78,153.54l12.5,0M200.78,131.88l12.5,0M200.78,110.23l12.5,0M200.78,88.58l12.5,0M200.78,66.92l12.5,0M200.78,45.27l12.5,0M200.78,23.62l12.5,0"/>
<path d="M200.78,478.34l25,0M200.78,391.73l25,0M200.78,305.11l25,0M200.78,218.5l25,0M200.78,131.88l25,0M200.78,45.27l25,0"/>
</g>
<g fill="none" stroke-width="0.1">
<g transform="matrix(0 -1 1 0 65.78 473.78)">
<g stroke="none" fill="#000000" fill-opacity="1" font-family="Times New Roman" font-size="54.166666666666664">
<text x="0" y="0" textLength="445.6">Abfragen pro Monat</text>
</g>
</g>
<g stroke="none" fill="#000000" fill-opacity="1" font-family="Times New Roman" font-size="54.166666666666664">
<text x="159.68" y="496.99" textLength="27.1">0</text>
<text x="132.58" y="410.38" textLength="54.2">20</text>
<text x="132.58" y="323.76" textLength="54.2">40</text>
<text x="132.58" y="237.15" textLength="54.2">60</text>
<text x="132.58" y="150.53" textLength="54.2">80</text>
<text x="105.48" y="63.92" textLength="81.3">100</text>
</g>
</g>
<g fill="none" stroke-linecap="butt" stroke-width="2.08">
<path d="M1748.03,478.34l0,-454.72"/>
<path d="M1748.03,478.34l-12.5,0M1748.03,456.69l-12.5,0M1748.03,435.03l-12.5,0M1748.03,413.38l-12.5,0M1748.03,391.73l-12.5,0M1748.03,370.07l-12.5,0M1748.03,348.42l-12.5,0M1748.03,326.77l-12.5,0M1748.03,305.11l-12.5,0M1748.03,283.46l-12.5,0M1748.03,261.81l-12.5,0M1748.03,240.15l-12.5,0M1748.03,218.5l-12.5,0M1748.03,196.85l-12.5,0M1748.03,175.19l-12.5,0M1748.03,153.54l-12.5,0M1748.03,131.88l-12.5,0M1748.03,110.23l-12.5,0M1748.03,88.58l-12.5,0M1748.03,66.92l-12.5,0M1748.03,45.27l-12.5,0M1748.03,23.62l-12.5,0"/>
<path d="M1748.03,478.34l-25,0M1748.03,391.73l-25,0M1748.03,305.11l-25,0M1748.03,218.5l-25,0M1748.03,131.88l-25,0M1748.03,45.27l-25,0"/>
<path d="M200.78,23.62l1547.24,0"/>
<path d="M200.78,23.62l0,12.5M278.53,23.62l0,12.5M357.13,23.62l0,12.5M434.45,23.62l0,12.5M513.05,23.62l0,12.5M590.37,23.62l0,12.5M668.97,23.62l0,12.5M746.29,23.62l0,12.5M824.89,23.62l0,12.5M902.64,23.62l0,12.5M981.24,23.62l0,12.5M1058.56,23.62l0,12.5M1137.16,23.62l0,12.5M1214.48,23.62l0,12.5M1293.08,23.62l0,12.5M1370.4,23.62l0,12.5M1449,23.62l0,12.5M1526.75,23.62l0,12.5M1605.35,23.62l0,12.5M1682.67,23.62l0,12.5"/>
<path d="M200.78,23.62l0,25M357.13,23.62l0,25M513.05,23.62l0,25M668.97,23.62l0,25M824.89,23.62l0,25M981.24,23.62l0,25M1137.16,23.62l0,25M1293.08,23.62l0,25M1449,23.62l0,25M1605.35,23.62l0,25"/>
<path d="M200.78,478.34l1547.24,0"/>
<path d="M200.78,478.34l0,-12.5M278.53,478.34l0,-12.5M357.13,478.34l0,-12.5M434.45,478.34l0,-12.5M513.05,478.34l0,-12.5M590.37,478.34l0,-12.5M668.97,478.34l0,-12.5M746.29,478.34l0,-12.5M824.89,478.34l0,-12.5M902.64,478.34l0,-12.5M981.24,478.34l0,-12.5M1058.56,478.34l0,-12.5M1137.16,478.34l0,-12.5M1214.48,478.34l0,-12.5M1293.08,478.34l0,-12.5M1370.4,478.34l0,-12.5M1449,478.34l0,-12.5M1526.75,478.34l0,-12.5M1605.35,478.34l0,-12.5M1682.67,478.34l0,-12.5"/>
<path d="M200.78,478.34l0,-25M357.13,478.34l0,-25M513.05,478.34l0,-25M668.97,478.34l0,-25M824.89,478.34l0,-25M981.24,478.34l0,-25M1137.16,478.34l0,-25M1293.08,478.34l0,-25M1449,478.34l0,-25M1605.35,478.34l0,-25"/>
</g>
<g fill="#ffffff" stroke-width="2.08">
<path d="m200.78,525.59l1547.24,0l0,454.72l-1547.24,0l0,-454.72"/>
</g>
<g fill="#000000" stroke-dasharray="8.33,4.16" stroke-linecap="butt" stroke-width="2.08">
<g transform="matrix(0 1 -1 0 1449.02 530.59)">
<path d="M0,0l448.7,0"/>
</g>
</g>
<g fill="#ffffff" stroke="none" stroke-width="0.1">
<path d="m963.36,831.6l449.31,0l0,120l-449.31,0l0,-120"/>
</g>
</g>
<g clip-path="url(#c2)">
<g fill="none" stroke="#e41a1c" stroke-linecap="butt" stroke-width="2.08">
<path d="M1022.41,861.6l0,0"/>
</g>
<g fill="none" stroke="#e41a1c" stroke-width="8.33">
<path d="M963.36,861.6l118.11,0"/>
</g>
</g>
<g fill="none" stroke-width="0.1">
<g stroke="none" fill="#000000" fill-opacity="1" font-family="Times New Roman" font-size="54.166666666666664">
<text x="1141.47" y="879.9" textLength="271.1">Deutschland</text>
</g>
</g>
<g clip-path="url(#c3)">
<g fill="none" stroke="#377eb8" stroke-linecap="butt" stroke-width="2.08">
<path d="M1022.41,921.6l0,0"/>
</g>
<g fill="none" stroke-dasharray="0.83,16.66" stroke-width="8.33">
<path d="M963.36,921.6l118.11,0"/>
</g>
</g>
<g fill="none" stroke-width="0.1">
<g stroke="none" fill="#000000" fill-opacity="1" font-family="Times New Roman" font-size="54.166666666666664">
<text x="1141.47" y="939.9" textLength="194.6">Weltweit</text>
</g>
</g>
<g clip-path="url(#c4)">
<g fill="none" stroke-dasharray="0.83,16.66" stroke-width="8.33">
<polyline fill="none" points="192.45,923.13 200.78,920.19 357.13,719.1 513.05,700.4 668.97,681.2 824.89,720.11 981.24,686.76 1137.16,669.08 1293.08,660.99 1449,595.31 1605.35,640.78"/>
</g>
<g fill="none" stroke="#e41a1c" stroke-width="8.33">
<polyline fill="none" points="192.45,953.94 200.78,951.51 357.13,760.02 513.05,776.19 668.97,751.94 824.89,745.37 981.24,689.29 1137.16,645.83 1293.08,625.12 1449,572.07 1605.35,616.53"/>
</g>
</g>
<g clip-path="url(#c0)">
<g fill="none" stroke-linecap="butt" stroke-width="2.08">
<path d="M200.78,980.31l0,-454.72"/>
<path d="M200.78,980.31l12.5,0M200.78,955.05l12.5,0M200.78,929.79l12.5,0M200.78,904.52l12.5,0M200.78,879.26l12.5,0M200.78,854l12.5,0M200.78,828.74l12.5,0M200.78,803.47l12.5,0M200.78,778.21l12.5,0M200.78,752.95l12.5,0M200.78,727.69l12.5,0M200.78,702.42l12.5,0M200.78,677.16l12.5,0M200.78,651.9l12.5,0M200.78,626.64l12.5,0M200.78,601.37l12.5,0M200.78,576.11l12.5,0M200.78,550.85l12.5,0M200.78,525.59l12.5,0"/>
<path d="M200.78,929.79l25,0M200.78,828.74l25,0M200.78,727.69l25,0M200.78,626.64l25,0M200.78,525.59l25,0"/>
</g>
<g fill="none" stroke-width="0.1">
<g transform="matrix(0 -1 1 0 48.3 950.1)">
<g stroke="none" fill="#000000" fill-opacity="1" font-family="Times New Roman" font-size="54.166666666666664">
<text x="0" y="0" textLength="394.3">Abfragen pro Jahr</text>
</g>
</g>
<g stroke="none" fill="#000000" fill-opacity="1" font-family="Times New Roman" font-size="54.166666666666664">
<text x="105.48" y="948.44" textLength="81.3">200</text>
<text x="105.48" y="847.39" textLength="81.3">400</text>
<text x="105.48" y="746.34" textLength="81.3">600</text>
<text x="105.48" y="645.29" textLength="81.3">800</text>
<text x="78.38" y="551.26" textLength="108.4">1000</text>
</g>
</g>
<g fill="none" stroke-linecap="butt" stroke-width="2.08">
<path d="M1748.03,980.31l0,-454.72"/>
<path d="M1748.03,980.31l-12.5,0M1748.03,955.05l-12.5,0M1748.03,929.79l-12.5,0M1748.03,904.52l-12.5,0M1748.03,879.26l-12.5,0M1748.03,854l-12.5,0M1748.03,828.74l-12.5,0M1748.03,803.47l-12.5,0M1748.03,778.21l-12.5,0M1748.03,752.95l-12.5,0M1748.03,727.69l-12.5,0M1748.03,702.42l-12.5,0M1748.03,677.16l-12.5,0M1748.03,651.9l-12.5,0M1748.03,626.64l-12.5,0M1748.03,601.37l-12.5,0M1748.03,576.11l-12.5,0M1748.03,550.85l-12.5,0M1748.03,525.59l-12.5,0"/>
<path d="M1748.03,929.79l-25,0M1748.03,828.74l-25,0M1748.03,727.69l-25,0M1748.03,626.64l-25,0M1748.03,525.59l-25,0"/>
<path d="M200.78,525.59l1547.24,0"/>
<path d="M200.78,525.59l0,12.5M278.53,525.59l0,12.5M357.13,525.59l0,12.5M434.45,525.59l0,12.5M513.05,525.59l0,12.5M590.37,525.59l0,12.5M668.97,525.59l0,12.5M746.29,525.59l0,12.5M824.89,525.59l0,12.5M902.64,525.59l0,12.5M981.24,525.59l0,12.5M1058.56,525.59l0,12.5M1137.16,525.59l0,12.5M1214.48,525.59l0,12.5M1293.08,525.59l0,12.5M1370.4,525.59l0,12.5M1449,525.59l0,12.5M1526.75,525.59l0,12.5M1605.35,525.59l0,12.5M1682.67,525.59l0,12.5"/>
<path d="M200.78,525.59l0,25M357.13,525.59l0,25M513.05,525.59l0,25M668.97,525.59l0,25M824.89,525.59l0,25M981.24,525.59l0,25M1137.16,525.59l0,25M1293.08,525.59l0,25M1449,525.59l0,25M1605.35,525.59l0,25"/>
<path d="M200.78,980.31l1547.24,0"/>
<path d="M200.78,980.31l0,-12.5M278.53,980.31l0,-12.5M357.13,980.31l0,-12.5M434.45,980.31l0,-12.5M513.05,980.31l0,-12.5M590.37,980.31l0,-12.5M668.97,980.31l0,-12.5M746.29,980.31l0,-12.5M824.89,980.31l0,-12.5M902.64,980.31l0,-12.5M981.24,980.31l0,-12.5M1058.56,980.31l0,-12.5M1137.16,980.31l0,-12.5M1214.48,980.31l0,-12.5M1293.08,980.31l0,-12.5M1370.4,980.31l0,-12.5M1449,980.31l0,-12.5M1526.75,980.31l0,-12.5M1605.35,980.31l0,-12.5M1682.67,980.31l0,-12.5"/>
<path d="M200.78,980.31l0,-25M357.13,980.31l0,-25M513.05,980.31l0,-25M668.97,980.31l0,-25M824.89,980.31l0,-25M981.24,980.31l0,-25M1137.16,980.31l0,-25M1293.08,980.31l0,-25M1449,980.31l0,-25M1605.35,980.31l0,-25"/>
</g>
<g fill="none" stroke-width="0.1">
<g stroke="none" fill="#000000" fill-opacity="1" font-family="Times New Roman" font-size="54.166666666666664">
<text x="793.8" y="1118.91" textLength="361.2">Jahr der Abfrage</text>
<text x="146.58" y="1042.61" textLength="108.4">2012</text>
<text x="302.93" y="1042.61" textLength="108.4">2013</text>
<text x="458.85" y="1042.61" textLength="108.4">2014</text>
<text x="614.77" y="1042.61" textLength="108.4">2015</text>
<text x="770.69" y="1042.61" textLength="108.4">2016</text>
<text x="927.04" y="1042.61" textLength="108.4">2017</text>
<text x="1082.96" y="1042.61" textLength="108.4">2018</text>
<text x="1238.88" y="1042.61" textLength="108.4">2019</text>
<text x="1394.8" y="1042.61" textLength="108.4">2020</text>
<text x="1551.15" y="1042.61" textLength="108.4">2021</text>
</g>
</g>
<g fill="#000000" stroke-dasharray="8.33,4.16" stroke-linecap="butt" stroke-width="2.08">
<g transform="matrix(-0.6293 0.7771 -0.7771 -0.6293 1488.18 478.34)">
<path d="M0,0l60.23,0"/>
</g>
<g transform="matrix(-0.9455 0.3255 -0.3255 -0.9455 1594.48 477.16)">
<path d="M0,0l152.36,0"/>
</g>
</g>
<g fill="none" stroke-width="0.1">
<g transform="matrix(0 -1 1 0 1637.31 472.44)">
<g stroke="none" fill="#000000" fill-opacity="1" font-family="Times New Roman" font-size="50.00000000000001">
<text x="0" y="0" textLength="163.9">12/2020</text>
</g>
</g>
<g transform="matrix(0 -1 1 0 1532.78 472.44)">
<g stroke="none" fill="#000000" fill-opacity="1" font-family="Times New Roman" font-size="50.00000000000001">
<text x="0" y="0" textLength="163.9">04/2020</text>
</g>
</g>
<g transform="matrix(0 -1 1 0 714.28 472.44)">
<g stroke="none" fill="#000000" fill-opacity="1" font-family="Times New Roman" font-size="50.00000000000001">
<text x="0" y="0" textLength="163.9">01/2015</text>
</g>
</g>
</g>
<g fill="#000000" stroke-dasharray="8.33,4.16" stroke-linecap="butt" stroke-width="2.08">
<g transform="matrix(0 1 -1 0 668.79 23.62)">
<path d="M0,0l956.69,0"/>
</g>
<g transform="matrix(0 1 -1 0 357.87 526.77)">
<path d="M0,0l453.54,0"/>
</g>
</g>
<g fill="none" stroke-width="0.1">
<g transform="matrix(0 -1 1 0 533.57 472.44)">
<g stroke="none" fill="#000000" fill-opacity="1" font-family="Times New Roman" font-size="50.00000000000001">
<text x="0" y="0" textLength="162">11/2013</text>
</g>
</g>
</g>
<g fill="#000000" stroke-dasharray="8.33,4.16" stroke-linecap="butt" stroke-width="2.08">
<g transform="matrix(0 1 -1 0 487.2 24.8)">
<path d="M0,0l453.54,0"/>
</g>
<g transform="matrix(0 1 -1 0 407.48 22.44)">
<path d="M0,0l453.54,0"/>
</g>
<g transform="matrix(-0.7193 0.6946 -0.6946 -0.7193 407.48 479.52)">
<path d="M0,0l68.5,0"/>
</g>
<g transform="matrix(-0.9335 0.3583 -0.3583 -0.9335 487.2 478.34)">
<path d="M0,0l138.18,0"/>
</g>
</g>
<g fill="none" stroke-width="0.1">
<g transform="matrix(0 -1 1 0 455.62 472.44)">
<g stroke="none" fill="#000000" fill-opacity="1" font-family="Times New Roman" font-size="50.00000000000001">
<text x="0" y="0" textLength="163.9">04/2013</text>
</g>
</g>
</g>
</g>
</g>
</svg>
